Coordinates
version=1
nRows=14
nColumns=36
inDegrees=yes

Units are S.I. units (second, meters, Newtons, ...)
If the header above contains a line with 'inDegrees', this indicates whether rotational values are in degrees (yes) or radians (no).

endheader
time	pelvis_tilt	pelvis_list	pelvis_rotation	pelvis_tx	pelvis_ty	pelvis_tz	hip_flexion_r	hip_adduction_r	hip_rotation_r	knee_angle_r	knee_angle_r_beta	ankle_angle_r	subtalar_angle_r	mtp_angle_r	hip_flexion_l	hip_adduction_l	hip_rotation_l	knee_angle_l	knee_angle_l_beta	ankle_angle_l	subtalar_angle_l	mtp_angle_l	lumbar_extension	lumbar_bending	lumbar_rotation	arm_flex_r	arm_add_r	arm_rot_r	elbow_flex_r	pro_sup_r	arm_flex_l	arm_add_l	arm_rot_l	elbow_flex_l	pro_sup_l
      4.40000000	     -2.92294791	     -6.63771538	    -12.19362208	      0.54982788	      0.76671118	      0.20237770	     33.98706522	     14.75136120	     -8.34525960	     73.54568173	      1.28361430	     39.43860603	     -5.54715261	     -7.49999987	     65.81288990	     -7.21574051	     16.15344534	     35.53428378	      0.62019025	     -7.79308409	     -2.34024663	     -7.49999987	     -9.85634133	      9.05696603	      0.80693610	     38.63805199	     -6.31411895	     61.55658045	    121.01948060	     85.06460150	     24.42874935	     -6.51071558	     68.62999100	    136.06240098	     96.80110364
      4.41666670	     -2.51222162	     -6.66031160	    -12.34356854	      0.54854959	      0.76691728	      0.20319131	     33.67214520	     14.60001875	     -8.44395849	     73.80582995	      1.28815474	     39.39742775	     -5.39493943	     -7.49999987	     65.36164293	     -7.43021422	     16.55767699	     35.21032197	      0.61453605	     -7.82077029	     -2.54596791	     -7.49999987	     -9.99288580	      9.14287951	      0.48745695	     38.42743630	     -5.92074223	     61.65016862	    120.75532330	     83.48295470	     24.11701511	     -6.49254548	     67.23486206	    136.37228056	     95.21204149
      4.43333330	     -2.30063462	     -6.65458272	    -12.32039920	      0.54975423	      0.76725959	      0.20313897	     33.25229518	     14.53271517	     -8.43520645	     73.71594193	      1.28658590	     39.61017918	     -5.22443294	     -7.49999987	     65.19106805	     -7.38490923	     16.88010396	     35.31066364	      0.61628734	     -7.78110741	     -3.21441235	     -7.49999987	    -10.17352152	      9.35948852	     -0.29701414	     38.96449120	     -5.27932502	     62.54784989	    120.40260578	     84.76070109	     23.52155520	     -6.67962492	     65.19176835	    136.73027962	     97.27405832
      4.45000000	     -2.53675294	     -6.48401641	    -12.61962435	      0.54299363	      0.76589263	      0.19989506	     34.07210776	     14.24297932	     -8.49735863	     74.17233229	      1.29455141	     39.62147425	     -4.97446065	     -7.49999987	     65.52766662	     -7.54913318	     16.96410353	     35.09948935	      0.61260165	     -7.77732963	     -2.81837620	     -7.49999987	    -10.29122085	      9.53347128	      0.07715266	     39.75844898	     -5.56490808	     63.33399892	    121.12656265	     84.89217794	     23.99878871	     -6.58505761	     65.19441076	    137.35203929	     97.36260220
      4.46666670	     -2.60357674	     -6.24720533	    -12.63668948	      0.54454529	      0.76880973	      0.20037737	     34.32494405	     13.75818962	     -8.67025486	     74.22611174	      1.29549004	     39.15314682	     -4.73910742	     -7.49999987	     65.48779074	     -7.37102384	     17.10377108	     35.25019448	      0.61523196	     -8.11371687	     -2.97142244	     -7.49999987	    -10.29026642	      9.46109833	     -0.13669552	     40.46665514	     -5.54902250	     63.16477325	    121.07128119	     83.27203927	     24.23745510	     -6.92083614	     65.63563469	    137.81606713	     95.84451679
      4.48333330	     -2.28099696	     -5.84377093	    -12.72979785	      0.55034528	      0.77274329	      0.19850653	     33.65473371	     13.08986643	     -8.38888321	     73.77284620	      1.28757906	     38.49459590	     -4.93082366	     -7.49999987	     64.70395474	     -7.18587580	     16.65153516	     35.15696649	      0.61360482	     -8.62232597	     -3.25445911	     -7.49999987	    -10.32932363	      9.19824002	     -0.25855364	     40.66742721	     -5.61496131	     63.32987094	    121.32816187	     83.38174663	     24.19559664	     -6.84858183	     65.60657681	    137.74929258	     96.06712755
      4.50000000	     -2.03175978	     -5.49989152	    -12.54658551	      0.55073938	      0.77634578	      0.19865795	     33.41274844	     12.40199144	     -8.39761126	     73.59536797	      1.28448149	     37.96096856	     -5.38123807	     -7.49999987	     64.03227050	     -6.79449633	     16.44888619	     35.28483701	      0.61583658	     -9.15619684	     -3.57823479	     -7.49999987	    -10.49734441	      8.92187660	     -0.68233946	     40.63594429	     -5.47784065	     64.15168255	    122.25459523	     82.36281686	     24.36851665	     -6.76773328	     64.75479257	    137.21739404	     95.04471367
      4.51666670	     -1.80373336	     -5.21606857	    -12.48601337	      0.54964507	      0.78180264	      0.19841915	     32.83493610	     11.89731579	     -8.25876751	     72.91363238	      1.27258295	     37.36441571	     -5.67270267	     -7.49999987	     63.14731147	     -6.62957651	     16.21546230	     34.72421720	      0.60605192	     -9.74314508	     -3.88965857	     -7.49999987	    -10.58054993	      8.81333642	     -0.75356429	     40.67447432	     -5.34256929	     64.43853107	    122.56171125	     81.29299461	     24.85455854	     -6.18782851	     62.34728786	    136.36019464	     93.92143183
      4.53333330	     -1.80979721	     -5.11884377	    -12.58905345	      0.55059171	      0.78263675	      0.19856711	     32.39917965	     11.63170377	     -8.31867290	     72.15179615	      1.25928640	     37.28482944	     -5.26142386	     -7.49999987	     62.76776020	     -6.79059353	     16.16497634	     33.95817365	      0.59268194	     -9.89991188	     -4.08046991	     -7.49999987	     -9.86063873	      8.98532646	     -0.57291761	     40.67764308	     -5.56861262	     65.19327605	    123.81705567	     78.52962766	     25.33425139	     -5.38982867	     59.26947978	    135.04593147	     90.33813743
      4.55000000	     -1.84467448	     -4.84898107	    -12.54413603	      0.54399502	      0.78532515	      0.19516007	     32.43640728	     11.13553006	     -8.30291815	     71.67972795	      1.25104726	     37.26208029	     -5.05844053	     -7.49999987	     62.58189062	     -6.75368907	     15.91994957	     33.58749123	      0.58621231	     -9.80507987	     -3.99085180	     -7.49999987	     -9.68454354	      9.00364873	     -0.97637629	     40.42798327	     -6.00684586	     66.74769506	    125.50479189	     79.07472437	     25.98224351	     -4.96691815	     56.99448637	    134.10348010	     90.83316984
      4.56666670	     -1.65027358	     -4.88938732	    -13.00832334	      0.54652617	      0.79464033	      0.19555302	     31.28190314	     11.16279696	     -7.89640559	     70.14027065	      1.22417866	     37.43917583	     -4.42155961	     -7.49999987	     61.72008206	     -7.24373993	     15.54870282	     32.97897339	      0.57559167	     -9.90867994	     -4.46718468	     -7.49999987	     -9.87074140	      9.39073010	     -1.25625964	     40.65362842	     -5.90593489	     67.71946592	    125.79693538	     80.49790883	     25.97381587	     -4.98128303	     55.31404151	    133.83008643	     92.55382140
      4.58333330	     -1.09276394	     -4.85280346	    -13.39675872	      0.54605019	      0.80668242	      0.19656231	     29.53264951	     11.15109026	     -7.29688612	     67.95391840	      1.18601962	     36.53477868	     -4.61003494	     -7.49999987	     60.14157349	     -7.63297373	     14.60940260	     31.96844620	      0.55795464	     -9.94789330	     -4.40940752	     -7.49999987	    -10.35640810	      9.46441312	     -1.50278236	     40.62044887	     -5.99313390	     68.48751705	    126.12684211	     83.34317011	     25.38775896	     -5.53912728	     54.29959281	    133.20869328	     96.71424876
      4.60000000	     -0.87354501	     -4.59357044	    -13.70317765	      0.54832282	      0.80931651	      0.19696229	     28.41308514	     10.92209730	     -6.77358354	     66.23656534	      1.15604615	     35.70408515	     -4.52514615	     -7.49999987	     59.28524637	     -7.88240165	     13.62351061	     31.64637461	      0.55233343	     -9.65399651	     -3.96505789	     -7.49999987	    -10.01141914	      9.19818532	     -1.70428936	     40.00810343	     -5.86221846	     68.61182432	    127.27216613	     82.42058758	     25.16057310	     -5.48830306	     54.35394017	    133.02199631	     95.17463747
      4.61666670	     -0.24145118	     -4.34354452	    -13.76208535	      0.55331466	      0.81690226	      0.19575553	     26.76503835	     10.35541113	     -6.57462158	     64.57876919	      1.12711215	     35.00354122	     -4.40422497	     -7.49999987	     57.85460105	     -7.81469084	     12.89113186	     31.08493596	      0.54253448	     -9.71071783	     -4.04490419	     -7.49999987	    -10.16857901	      9.01675738	     -1.75026228	     39.90210035	     -5.91426701	     68.64329153	    128.07829667	     82.58081034	     25.21812030	     -5.15595523	     54.36271721	    133.30251503	     95.45088214
